<?xml version="1.0" standalone="no"?>
<!DOCTYPE svg PUBLIC "-//W3C//DTD SVG 20010904//EN"
 "http://www.w3.org/TR/2001/REC-SVG-20010904/DTD/svg10.dtd">
<svg version="1.0" xmlns="http://www.w3.org/2000/svg"
 width="900.000000pt" height="900.000000pt" viewBox="0 0 900.000000 900.000000"
 preserveAspectRatio="xMidYMid meet">
<metadata>
Created by potrace 1.10, written by Peter Selinger 2001-2011
</metadata>
<g transform="translate(0.000000,900.000000) scale(0.100000,-0.100000)"
fill="#FFFFFF" stroke="none">
<path d="M4420 8790 c-7 -14 -7 -39 0 -86 7 -41 7 -71 2 -76 -9 -9 -81 69
-137 147 -18 25 -23 27 -43 16 -22 -11 -22 -15 -16 -144 5 -97 11 -137 22
-149 12 -15 18 -16 30 -6 12 10 13 29 8 95 -5 63 -3 83 6 82 11 0 82 -83 131
-153 10 -14 21 -17 40 -12 l26 6 -6 133 c-3 72 -10 140 -15 150 -12 23 -35 22
-48 -3z"/>
<path d="M4617 8795 c-10 -9 -17 -20 -17 -24 0 -17 26 -31 57 -31 l33 0 0 -53
c0 -30 -5 -79 -12 -111 -10 -54 -10 -59 10 -79 37 -36 50 -9 59 118 l8 110 30
3 c38 5 69 30 55 47 -6 7 -40 15 -78 19 -37 4 -81 9 -98 12 -21 4 -36 1 -47
-11z"/>
<path d="M3973 8772 c-40 -10 -76 -21 -81 -27 -9 -9 -7 -38 16 -213 9 -67 23
-86 57 -76 11 3 48 9 83 13 73 8 89 19 72 51 -11 20 -17 21 -53 15 -23 -5 -55
-9 -72 -9 -27 -1 -30 2 -30 29 0 19 5 30 15 32 82 11 91 14 88 36 -3 20 -9 22
-58 22 -54 0 -55 0 -58 31 -3 30 -1 32 38 38 23 3 45 4 50 1 16 -10 50 15 50
35 0 16 -29 43 -42 39 -2 -1 -35 -8 -75 -17z"/>
<path d="M4969 8731 c-50 -50 -30 -115 41 -136 14 -4 35 -14 48 -21 18 -12 20
-18 12 -34 -15 -29 -61 -26 -84 5 -10 14 -27 25 -37 25 -52 0 -25 -72 38 -100
36 -16 49 -17 71 -8 50 21 72 49 72 88 0 43 -24 70 -77 85 -48 13 -65 41 -39
61 28 20 42 18 76 -16 33 -33 55 -38 63 -16 17 44 -44 96 -112 96 -34 0 -49
-6 -72 -29z"/>
<path d="M3536 8691 c-16 -3 -32 -15 -36 -26 -6 -18 -4 -33 14 -100 3 -11 13
-51 22 -90 19 -81 32 -96 77 -85 78 19 112 43 141 99 32 60 13 125 -50 180
-30 27 -42 31 -87 30 -29 -1 -65 -4 -81 -8z m111 -57 c34 -9 66 -67 58 -104
-9 -41 -77 -89 -100 -70 -8 7 -15 24 -15 39 0 14 -7 45 -15 68 -8 23 -12 49
-9 58 6 15 42 19 81 9z"/>
<path d="M5590 8643 c-8 -2 -35 -32 -60 -66 -25 -34 -62 -81 -83 -104 -26 -28
-37 -49 -35 -65 4 -32 32 -34 60 -4 21 24 26 25 63 15 53 -15 65 -26 65 -60 0
-19 6 -30 20 -34 35 -11 43 3 36 69 -4 33 -9 93 -12 131 -8 114 -14 127 -54
118z m0 -148 c0 -28 -4 -35 -20 -35 -29 0 -42 31 -23 52 26 29 43 22 43 -17z"/>
<path d="M3285 8611 c-3 -11 0 -33 8 -48 8 -15 24 -57 36 -92 l22 -64 -22 -23
c-12 -13 -28 -24 -34 -24 -23 0 -54 37 -64 76 -6 21 -16 60 -22 87 -13 48 -41
69 -69 52 -12 -8 -6 -63 10 -94 4 -9 16 -38 26 -66 23 -66 72 -115 114 -115
41 0 85 32 106 76 16 33 16 39 -1 92 -51 161 -49 157 -77 160 -19 2 -28 -2
-33 -17z"/>
<path d="M5841 8509 c-50 -50 -39 -84 48 -150 42 -31 38 -59 -8 -59 -23 0 -34
8 -50 36 -26 44 -55 43 -59 -2 -3 -26 3 -37 35 -63 62 -51 126 -40 162 28 19
34 2 69 -51 107 -58 43 -61 69 -9 69 28 0 38 -6 51 -30 20 -36 55 -45 65 -16
14 45 -55 111 -115 111 -30 0 -46 -7 -69 -31z"/>
<path d="M2950 8500 c-39 -20 -71 -34 -112 -50 -20 -7 -28 -16 -28 -34 0 -34
15 -40 50 -23 37 19 50 9 77 -63 11 -30 26 -69 33 -87 16 -42 31 -54 58 -46
31 8 28 26 -24 130 -49 97 -51 123 -10 123 19 0 27 7 32 24 12 49 -16 58 -76
26z"/>
<path d="M6175 8396 c-30 -13 -55 -51 -55 -83 0 -9 23 -38 52 -65 48 -44 51
-49 36 -64 -26 -26 -65 -10 -83 32 -25 61 -68 27 -51 -40 8 -30 66 -66 107
-66 68 0 109 58 83 118 -7 18 -17 32 -21 32 -4 0 -21 11 -38 26 -24 20 -27 28
-19 42 24 38 75 18 88 -34 10 -37 50 -30 54 9 4 37 -22 75 -63 93 -41 17 -51
17 -90 0z"/>
<path d="M2626 8339 c-84 -24 -114 -114 -55 -163 36 -31 40 -31 96 -10 23 9
49 14 58 11 23 -9 18 -45 -9 -62 -19 -13 -28 -13 -49 -4 -32 14 -60 -2 -50
-29 9 -25 24 -32 66 -32 49 0 91 24 110 65 12 26 13 36 2 62 -14 34 -50 63
-78 63 -10 0 -29 -7 -42 -16 -32 -21 -69 -15 -73 13 -2 14 5 27 22 39 22 14
31 14 55 4 34 -14 51 -7 51 19 0 35 -53 55 -104 40z"/>
<path d="M4180 8305 c-213 -18 -454 -61 -620 -109 -25 -8 -72 -22 -105 -31
-33 -10 -69 -22 -80 -26 -11 -5 -54 -20 -95 -35 -126 -44 -152 -54 -209 -81
-68 -31 -250 -121 -271 -134 -8 -5 -73 -43 -145 -86 -108 -63 -209 -130 -260
-170 -5 -5 -41 -33 -80 -63 -130 -101 -168 -135 -288 -250 -233 -224 -427
-469 -600 -756 -58 -97 -179 -338 -222 -444 -14 -36 -30 -74 -34 -85 -15 -33
-67 -186 -84 -245 -38 -131 -46 -159 -60 -225 -71 -322 -87 -473 -87 -805 0
-226 9 -372 34 -530 30 -197 83 -427 112 -497 8 -17 14 -36 14 -42 0 -20 39
-131 76 -218 8 -17 14 -36 14 -41 0 -6 7 -23 15 -39 8 -15 26 -55 41 -88 43
-98 96 -206 140 -280 22 -38 44 -77 48 -85 18 -39 110 -174 224 -333 127 -176
341 -396 592 -611 64 -55 269 -204 332 -241 9 -5 54 -32 100 -60 45 -27 92
-55 103 -61 31 -18 226 -114 260 -128 58 -24 110 -48 138 -62 16 -8 35 -14 42
-14 8 0 29 -6 47 -14 53 -22 109 -42 173 -61 33 -10 80 -23 105 -31 194 -56
367 -87 650 -114 245 -24 345 -24 595 0 288 29 451 57 650 115 121 35 252 77
282 91 17 8 38 14 46 14 9 0 18 4 21 9 3 5 18 12 32 15 40 10 289 130 389 186
22 13 58 33 80 45 124 67 400 265 535 384 88 78 253 241 333 328 81 90 275
342 294 383 4 8 26 43 50 78 24 35 43 67 43 72 0 5 6 15 13 22 6 8 18 25 26
38 23 40 175 344 188 376 74 188 115 306 147 424 50 185 61 230 82 355 67 387
67 863 0 1225 -32 171 -49 245 -80 350 -8 25 -21 72 -31 105 -62 211 -190 501
-319 720 -137 233 -260 401 -440 599 -154 169 -256 265 -455 426 -79 64 -301
215 -366 250 -11 6 -33 19 -50 29 -45 29 -322 166 -385 191 -30 12 -68 28 -83
36 -16 8 -33 14 -39 14 -5 0 -24 6 -41 14 -38 16 -95 35 -197 65 -41 13 -85
27 -98 32 -13 5 -31 9 -41 9 -10 0 -41 6 -67 14 -271 78 -757 113 -1134 81z
m745 -84 c39 -7 113 -19 165 -28 52 -9 113 -20 135 -25 22 -5 58 -13 80 -17
22 -4 56 -12 75 -18 19 -6 62 -19 95 -28 33 -9 75 -23 93 -31 18 -8 40 -14 50
-14 9 0 30 -7 46 -15 15 -8 33 -15 38 -15 11 0 66 -23 111 -46 16 -8 33 -14
39 -14 22 0 406 -197 437 -224 9 -7 26 -17 39 -20 12 -4 22 -12 22 -17 0 -5 5
-9 10 -9 12 0 73 -41 78 -52 2 -5 8 -8 13 -8 17 0 197 -136 323 -244 79 -67
264 -250 336 -331 20 -22 73 -87 118 -145 45 -58 87 -111 93 -118 18 -22 139
-202 139 -207 0 -3 12 -24 27 -48 56 -86 162 -291 208 -404 21 -48 43 -101 50
-118 7 -16 20 -47 29 -68 9 -21 16 -44 16 -52 0 -8 6 -29 14 -47 47 -113 114
-397 150 -638 32 -212 30 -782 -3 -945 -5 -27 -17 -95 -26 -150 -9 -55 -23
-121 -31 -147 -8 -26 -14 -56 -14 -67 0 -11 -6 -38 -14 -58 -7 -21 -21 -65
-31 -98 -23 -78 -51 -164 -63 -195 -6 -14 -20 -50 -32 -80 -49 -127 -142 -324
-192 -405 -10 -16 -23 -41 -29 -55 -6 -14 -21 -39 -35 -57 -13 -17 -24 -34
-24 -37 0 -19 -200 -299 -294 -411 -90 -108 -378 -388 -491 -478 -118 -95
-320 -234 -400 -277 -11 -6 -47 -26 -80 -45 -111 -65 -312 -160 -450 -212 -22
-9 -49 -19 -60 -24 -19 -8 -102 -35 -195 -63 -156 -48 -305 -80 -540 -116
-122 -19 -430 -28 -652 -20 -114 5 -211 11 -216 14 -4 3 -46 10 -93 15 -46 6
-104 15 -129 20 -215 45 -279 61 -355 87 -23 8 -47 14 -54 14 -7 0 -27 6 -44
14 -18 8 -41 16 -52 19 -27 7 -104 35 -135 48 -249 108 -334 151 -514 259
-219 131 -304 194 -521 381 -209 180 -468 480 -616 714 -24 39 -50 79 -57 90
-6 11 -17 29 -22 40 -6 11 -19 34 -30 50 -35 55 -162 318 -195 405 -10 25 -24
59 -31 77 -8 17 -14 37 -14 45 0 8 -4 18 -8 23 -9 10 -39 100 -67 200 -36 131
-45 165 -59 235 -8 41 -20 101 -26 132 -11 55 -15 90 -41 323 -7 59 -9 197 -6
340 4 221 9 277 38 465 6 36 15 92 20 125 5 33 13 73 19 90 5 16 13 50 19 75
16 74 51 202 72 260 71 203 119 321 188 460 40 79 97 184 126 230 14 22 25 42
25 45 0 7 146 221 199 290 100 133 299 350 416 455 39 35 88 79 110 100 77 70
411 310 432 310 4 0 14 6 22 14 40 34 311 172 466 237 29 12 124 49 165 64
104 39 311 97 425 120 44 9 100 21 125 26 25 6 83 15 130 20 47 6 112 14 145
19 87 12 686 5 770 -9z"/>
<path d="M4413 7493 c-28 -32 -85 -96 -128 -143 -113 -125 -108 -116 -97 -207
6 -43 15 -114 21 -158 5 -44 17 -143 26 -220 26 -219 43 -359 61 -495 17 -134
16 -181 -4 -188 -16 -5 -42 57 -42 100 0 18 -6 71 -14 118 -9 47 -22 132 -31
190 -22 141 -43 268 -60 365 -9 44 -15 93 -15 109 0 48 -22 107 -46 123 -31
20 -57 10 -90 -35 -15 -20 -30 -39 -33 -42 -4 -3 -23 -25 -45 -49 -37 -42 -38
-46 -32 -95 4 -28 14 -71 22 -96 16 -50 64 -241 71 -280 2 -14 10 -47 18 -75
8 -27 21 -79 30 -115 39 -156 48 -186 56 -209 15 -36 2 -60 -36 -67 -19 -3
-65 -21 -102 -40 -79 -39 -79 -39 -133 61 -26 50 -136 239 -171 295 -5 8 -21
37 -36 64 -16 27 -32 56 -38 65 -5 9 -38 65 -73 124 -34 58 -70 111 -80 116
-24 12 -140 31 -194 31 -79 0 -102 -56 -50 -123 15 -20 54 -74 87 -121 33 -47
87 -123 120 -169 33 -47 89 -126 125 -176 36 -51 98 -137 138 -192 39 -55 72
-103 72 -108 0 -12 -27 -22 -42 -15 -7 3 -33 33 -58 67 -25 34 -65 87 -90 118
-25 31 -58 74 -75 95 -16 21 -57 72 -90 114 -33 41 -83 104 -110 140 -27 36
-54 70 -61 75 -6 6 -33 39 -59 75 -27 36 -52 67 -55 70 -4 3 -25 30 -49 61
-23 32 -54 62 -69 68 -15 6 -112 15 -216 20 -196 10 -219 7 -229 -30 -9 -32
11 -394 23 -419 6 -14 46 -51 88 -83 42 -32 100 -76 127 -98 28 -22 117 -93
198 -157 82 -64 197 -155 256 -202 58 -47 130 -103 158 -124 53 -40 68 -60 57
-77 -13 -21 -13 -21 -319 206 -60 45 -141 103 -180 130 -38 27 -123 89 -188
137 -133 99 -170 111 -202 62 -15 -24 -16 -35 -6 -103 7 -42 14 -90 17 -107 2
-17 12 -38 22 -46 21 -19 670 -408 680 -408 4 0 19 -10 35 -23 l27 -22 -35
-73 c-19 -40 -35 -80 -35 -90 0 -10 -6 -26 -13 -37 -16 -21 -8 -22 -212 35
-44 12 -96 26 -115 30 -19 4 -71 18 -115 30 -157 42 -191 51 -245 64 -30 8
-80 21 -110 29 -43 12 -60 13 -81 4 -27 -12 -96 -66 -151 -119 -57 -54 -27
-99 78 -117 38 -7 103 -18 144 -26 41 -7 120 -21 175 -30 55 -9 136 -23 180
-30 44 -8 125 -21 180 -30 187 -31 217 -38 222 -53 9 -21 -17 -33 -62 -27 -22
3 -89 11 -150 19 -60 8 -173 22 -250 31 -77 9 -174 20 -215 26 -41 5 -121 14
-178 19 -57 6 -122 14 -145 20 -23 5 -67 10 -97 9 -52 0 -58 -2 -106 -47 -29
-26 -100 -89 -158 -140 -77 -67 -106 -99 -106 -116 0 -16 28 -48 92 -108 130
-119 195 -175 222 -193 24 -16 39 -15 278 21 53 7 114 14 135 14 21 0 85 6
143 14 58 8 164 22 235 30 72 9 171 21 220 27 134 18 140 17 143 -8 3 -24 -2
-26 -83 -38 -22 -3 -67 -10 -100 -15 -33 -5 -107 -16 -165 -25 -58 -9 -143
-23 -190 -30 -47 -7 -132 -21 -190 -30 -245 -38 -279 -50 -280 -98 0 -24 115
-134 178 -171 17 -10 119 11 286 60 26 8 55 14 64 14 8 0 38 6 66 14 28 8 80
22 116 31 36 9 79 20 96 26 16 5 50 13 75 18 24 6 68 17 98 25 60 17 91 9 91
-25 0 -11 16 -53 35 -92 19 -39 33 -78 30 -86 -3 -9 -26 -27 -52 -41 -46 -24
-333 -190 -363 -210 -8 -6 -24 -14 -35 -20 -11 -5 -83 -47 -160 -93 -156 -94
-145 -78 -166 -230 -12 -86 -12 -88 11 -112 32 -34 58 -31 118 13 28 20 102
73 164 116 149 105 241 170 370 264 230 165 231 166 235 127 2 -15 -23 -40
-90 -92 -100 -78 -206 -161 -488 -384 -101 -80 -210 -165 -242 -188 -31 -24
-59 -53 -62 -65 -11 -52 -25 -236 -25 -326 0 -98 0 -100 28 -114 22 -11 49
-12 137 -5 61 4 149 8 196 8 104 1 99 -3 243 186 33 44 68 89 78 100 9 11 63
79 120 151 57 72 126 159 153 194 49 62 104 133 155 199 36 47 62 71 77 71 21
0 14 -43 -13 -75 -23 -28 -192 -256 -248 -335 -36 -50 -197 -273 -251 -347
-49 -68 -56 -100 -25 -128 17 -16 33 -17 118 -12 104 5 155 22 166 54 3 10 15
32 26 48 11 17 23 37 27 45 4 8 18 31 31 50 13 19 28 44 33 55 11 22 22 41 62
102 15 24 27 45 27 47 0 3 12 22 26 43 14 21 30 47 35 58 5 11 15 29 21 40 15
23 58 92 75 120 7 11 22 40 35 64 13 24 28 45 34 48 6 2 38 -9 70 -25 33 -17
81 -38 107 -47 52 -19 53 -20 29 -90 -11 -33 -31 -103 -57 -205 -36 -139 -46
-177 -60 -225 -8 -27 -19 -70 -25 -95 -6 -25 -18 -70 -26 -100 -41 -152 -42
-166 -2 -210 13 -14 45 -51 71 -83 55 -65 83 -72 115 -32 11 14 23 49 27 78 3
28 12 86 20 127 7 41 21 118 30 170 9 52 22 131 30 175 8 44 21 125 30 180 25
152 43 246 49 252 3 3 13 3 22 -1 18 -7 17 -34 -12 -261 -26 -211 -43 -346
-59 -490 -8 -77 -22 -185 -30 -240 -22 -146 -23 -144 43 -216 31 -35 75 -84
96 -109 107 -123 130 -143 159 -143 17 0 35 6 41 15 13 17 129 147 201 226 68
73 79 95 66 135 -5 18 -13 59 -16 92 -3 33 -12 112 -20 175 -8 63 -21 176 -30
250 -9 74 -22 189 -30 255 -41 333 -40 315 -4 315 13 0 19 -7 19 -22 0 -13 6
-61 14 -108 9 -47 22 -132 31 -190 9 -58 23 -143 30 -190 7 -47 21 -132 30
-190 43 -273 55 -310 100 -310 22 0 48 24 117 105 68 81 72 91 55 149 -9 28
-23 80 -32 116 -9 36 -20 79 -26 96 -5 16 -13 50 -19 75 -27 125 -47 204 -76
303 -8 26 -14 56 -14 66 0 10 -7 34 -15 53 -8 20 -15 50 -15 66 0 25 5 31 38
41 20 6 51 18 69 26 17 8 35 14 41 14 5 0 15 7 22 15 17 21 59 19 66 -2 3 -10
10 -25 15 -33 5 -8 12 -22 16 -30 4 -8 26 -47 50 -86 24 -39 43 -74 43 -77 0
-4 12 -23 26 -44 14 -21 30 -47 35 -58 5 -11 18 -33 29 -50 11 -16 23 -37 27
-45 4 -8 40 -70 80 -137 40 -68 73 -127 73 -131 0 -19 48 -51 90 -61 25 -6 80
-11 122 -11 66 0 79 3 88 19 19 37 10 67 -41 137 -45 62 -85 118 -244 344 -25
36 -80 112 -122 170 -156 214 -160 221 -128 233 9 4 27 -9 48 -36 56 -70 221
-280 242 -308 11 -15 63 -80 115 -145 102 -127 154 -192 251 -317 33 -43 71
-82 82 -86 12 -5 111 -11 219 -14 l197 -6 20 28 c18 24 19 35 11 92 -4 35 -11
125 -15 200 l-7 137 -31 29 c-18 17 -61 52 -97 79 -36 27 -99 76 -140 109 -42
33 -91 72 -110 87 -55 43 -211 167 -253 201 -21 17 -59 47 -85 66 -172 130
-194 153 -173 174 12 12 26 3 161 -96 52 -39 113 -83 135 -99 61 -44 280 -203
406 -295 117 -86 146 -96 178 -64 16 16 18 30 14 117 -5 104 -21 149 -59 169
-10 6 -38 23 -62 38 -23 15 -61 38 -83 50 -48 26 -61 34 -114 68 -22 14 -47
29 -55 33 -17 8 -38 21 -97 59 -24 15 -45 27 -47 27 -3 0 -22 12 -43 26 -21
14 -47 30 -58 35 -11 5 -33 18 -50 29 -16 11 -43 26 -60 33 -46 21 -61 43 -44
65 19 23 43 75 65 140 20 59 14 58 114 27 30 -9 66 -18 80 -21 14 -3 48 -11
75 -19 54 -16 123 -34 225 -60 36 -9 88 -23 115 -30 223 -64 276 -72 307 -42
7 7 36 30 63 52 28 22 58 47 68 57 20 20 23 71 4 86 -14 12 -100 31 -252 56
-55 10 -136 23 -180 31 -44 7 -125 21 -180 30 -55 9 -136 23 -180 30 -44 8
-101 16 -126 20 -88 11 -107 55 -24 55 24 0 88 -6 142 -14 54 -8 161 -22 238
-31 77 -9 190 -22 250 -30 61 -8 144 -17 185 -20 41 -3 91 -10 110 -14 69 -18
167 -22 182 -9 7 7 31 28 53 47 52 44 192 169 227 203 52 49 47 57 -126 213
-43 39 -96 87 -118 109 l-40 38 -87 -7 c-47 -3 -124 -13 -170 -21 -46 -8 -100
-14 -120 -14 -20 0 -83 -6 -141 -14 -126 -18 -265 -34 -380 -46 -47 -5 -120
-14 -163 -21 -59 -10 -80 -10 -89 -1 -20 20 19 52 63 52 21 0 74 6 116 14 43
8 128 22 188 31 61 9 148 22 195 30 47 8 132 22 190 31 226 35 250 44 250 93
0 24 -14 40 -78 94 -111 91 -105 89 -198 65 -43 -11 -95 -23 -114 -28 -19 -4
-55 -13 -80 -19 -25 -7 -71 -19 -102 -27 -32 -8 -86 -21 -120 -30 -35 -8 -90
-22 -123 -30 -33 -9 -80 -21 -105 -29 -25 -8 -63 -17 -86 -20 -40 -6 -41 -6
-58 37 -10 24 -31 71 -48 105 -16 34 -27 67 -23 74 4 6 22 17 39 25 17 8 38
19 46 24 60 38 270 160 276 160 4 0 15 6 23 14 9 7 43 29 77 47 162 90 283
166 295 184 7 11 16 65 20 120 9 117 -1 145 -51 145 -30 0 -69 -24 -215 -132
-35 -27 -67 -48 -70 -48 -3 0 -44 -28 -90 -62 -112 -84 -229 -167 -414 -295
-41 -28 -61 -29 -61 -4 0 13 42 51 122 113 67 51 138 107 157 124 20 17 65 52
101 79 36 27 70 54 75 60 6 6 45 38 88 71 42 32 94 73 116 89 21 17 76 59 122
95 121 93 118 89 119 200 0 52 5 140 10 195 8 98 4 128 -24 148 -11 7 -370 0
-413 -9 -13 -2 -62 -55 -125 -136 -57 -72 -117 -148 -134 -167 -17 -20 -52
-65 -79 -101 -27 -36 -70 -90 -95 -120 -25 -31 -56 -71 -70 -89 -14 -18 -54
-69 -90 -114 -36 -45 -79 -101 -95 -124 -20 -28 -38 -43 -52 -43 -44 0 -38 10
147 261 363 494 400 546 400 580 0 38 -29 59 -81 58 -76 0 -192 -25 -205 -44
-7 -9 -108 -176 -225 -372 -117 -195 -220 -358 -227 -361 -8 -3 -22 0 -31 6
-28 20 -103 52 -120 52 -9 0 -27 7 -40 16 -25 18 -24 40 5 139 23 81 41 146
59 215 9 36 22 88 30 115 7 28 21 79 30 115 40 153 47 178 62 227 l16 52 -54
70 c-30 39 -57 71 -61 71 -5 0 -8 5 -8 11 0 15 -42 48 -61 49 -8 0 -25 -10
-36 -22 -21 -23 -34 -78 -68 -283 -18 -110 -37 -222 -60 -347 -8 -46 -16 -99
-19 -118 -26 -198 -39 -245 -66 -245 -19 0 -19 61 -2 190 21 160 41 317 57
460 9 77 20 174 26 215 5 41 14 121 21 177 l11 102 -36 43 c-20 24 -51 59 -69
79 -18 20 -66 73 -107 118 -93 102 -107 104 -178 24z m124 -66 c13 -18 31 -42
40 -53 10 -10 49 -54 86 -96 l69 -77 -16 -103 c-17 -114 -33 -253 -46 -400 -5
-54 -13 -131 -19 -170 -6 -40 -15 -118 -21 -173 -6 -55 -15 -142 -21 -194 -10
-90 -9 -95 12 -117 18 -20 33 -24 76 -24 51 0 55 2 68 33 7 17 16 55 20 82 3
28 13 82 20 120 8 39 21 108 30 155 9 47 23 117 31 155 8 39 14 78 14 89 0 10
7 48 14 85 8 36 20 105 27 153 18 130 22 132 82 46 l37 -54 -16 -55 c-8 -30
-19 -72 -23 -94 -4 -22 -12 -56 -19 -75 -6 -19 -18 -64 -27 -100 -9 -36 -22
-87 -30 -115 -8 -27 -16 -61 -18 -75 -3 -14 -22 -88 -42 -165 -21 -77 -40
-150 -42 -163 -7 -30 18 -56 70 -72 23 -7 84 -33 135 -57 90 -42 93 -43 116
-26 12 10 43 51 67 91 49 82 54 90 89 147 14 23 30 50 37 60 7 11 45 73 85
138 40 65 82 135 94 155 11 20 38 66 60 101 39 63 41 65 99 77 33 7 66 13 73
13 22 2 13 -36 -18 -70 -17 -19 -47 -59 -67 -89 -20 -30 -62 -89 -92 -130 -31
-41 -73 -100 -94 -130 -21 -30 -65 -93 -98 -140 -33 -47 -76 -107 -94 -135
-18 -27 -42 -61 -54 -74 -40 -45 -26 -90 43 -135 40 -26 60 -12 148 98 39 50
75 93 78 96 3 3 28 34 55 70 26 36 53 70 60 75 6 6 33 39 61 75 27 36 59 76
71 90 11 14 60 75 108 135 107 135 153 191 185 226 24 27 29 28 193 39 93 7
171 9 174 6 9 -8 -14 -332 -24 -350 -4 -8 -53 -50 -109 -93 -116 -90 -198
-156 -234 -186 -39 -34 -122 -100 -146 -117 -12 -8 -88 -69 -169 -135 -81 -66
-160 -129 -176 -141 -16 -11 -37 -32 -48 -46 -18 -23 -19 -27 -5 -54 41 -79
91 -94 153 -45 37 29 78 57 301 209 69 47 148 101 175 121 28 19 79 55 115 79
36 24 79 57 95 72 17 16 39 30 50 32 18 3 20 -2 17 -42 -4 -75 -19 -107 -60
-127 -20 -10 -55 -30 -77 -44 -22 -14 -47 -28 -55 -32 -8 -4 -24 -13 -35 -19
-40 -27 -101 -63 -134 -81 -19 -10 -52 -31 -75 -45 -23 -14 -57 -35 -76 -45
-19 -11 -54 -32 -78 -48 -24 -16 -45 -29 -47 -29 -9 0 -111 -64 -132 -83 -30
-27 -29 -33 11 -119 19 -40 43 -99 55 -132 20 -57 43 -85 70 -86 7 0 34 7 60
15 25 8 105 29 176 45 219 52 258 61 310 74 93 24 150 38 185 46 19 4 56 13
81 20 45 13 46 13 97 -26 29 -21 52 -46 52 -55 0 -17 -43 -29 -110 -29 -19 0
-68 -6 -110 -14 -41 -8 -115 -22 -165 -30 -242 -41 -285 -49 -355 -61 -41 -8
-104 -18 -139 -24 -80 -13 -101 -31 -101 -85 0 -30 7 -49 25 -69 29 -30 40
-31 236 -1 53 8 119 14 147 14 28 0 73 5 99 10 26 6 95 14 153 19 151 14 289
29 417 48 l112 17 77 -70 c42 -38 91 -82 108 -98 17 -15 41 -35 54 -43 12 -9
22 -22 22 -29 0 -8 -10 -23 -22 -33 -79 -66 -188 -160 -213 -184 -17 -15 -35
-25 -41 -23 -28 11 -287 43 -459 57 -60 5 -116 11 -123 14 -8 3 -66 10 -130
15 -65 6 -139 14 -167 19 -27 6 -96 13 -152 16 l-102 7 -21 -34 c-24 -39 -26
-91 -5 -112 17 -17 66 -32 135 -41 25 -4 77 -13 115 -20 39 -8 106 -21 150
-29 44 -8 107 -20 140 -26 33 -7 83 -16 110 -20 28 -4 77 -12 110 -18 33 -7
92 -17 132 -23 39 -6 74 -16 76 -23 6 -16 -87 -86 -115 -86 -12 0 -46 7 -77
16 -82 23 -148 41 -216 57 -33 9 -88 23 -122 31 -35 9 -90 23 -123 31 -33 8
-87 22 -120 30 -33 8 -86 22 -118 31 -76 21 -103 16 -121 -21 -8 -16 -18 -38
-23 -47 -4 -10 -8 -23 -8 -29 0 -12 -23 -67 -51 -120 -33 -63 -22 -98 41 -133
21 -12 346 -211 388 -238 15 -10 36 -22 47 -28 11 -6 34 -19 50 -30 17 -11 39
-24 50 -30 27 -14 49 -28 116 -71 53 -35 56 -40 67 -95 15 -73 15 -84 -1 -84
-8 0 -65 38 -128 85 -63 46 -127 94 -144 105 -203 143 -342 241 -429 304 -93
68 -131 76 -165 36 -47 -56 -40 -103 21 -147 24 -17 52 -40 63 -50 11 -10 48
-40 82 -66 34 -26 68 -53 75 -60 7 -7 45 -37 83 -66 39 -30 72 -57 75 -60 3
-4 36 -31 75 -61 38 -30 79 -62 90 -72 43 -35 131 -106 204 -162 42 -32 81
-66 87 -75 13 -18 35 -342 24 -354 -6 -7 -349 17 -354 25 -6 9 -73 96 -88 113
-64 78 -347 432 -363 455 -11 16 -35 46 -53 67 -18 21 -71 86 -117 145 -47 59
-94 110 -106 113 -12 4 -31 0 -47 -10 -70 -45 -88 -80 -58 -114 13 -16 40 -54
181 -261 39 -58 96 -140 126 -183 29 -43 59 -86 64 -95 6 -10 42 -60 81 -113
39 -53 77 -106 84 -119 l12 -23 -62 7 c-71 8 -110 21 -110 36 0 9 -88 163
-130 230 -6 8 -15 24 -20 35 -6 11 -19 34 -30 50 -11 17 -24 39 -30 50 -6 11
-19 34 -30 50 -11 17 -24 39 -30 50 -6 11 -19 34 -30 50 -11 17 -24 39 -30 50
-6 11 -19 34 -30 50 -10 17 -29 49 -41 73 -13 23 -33 49 -46 57 -22 15 -29 13
-116 -28 -51 -24 -112 -50 -136 -57 -58 -18 -77 -49 -63 -98 6 -20 18 -68 27
-107 9 -38 22 -95 30 -125 8 -30 21 -86 30 -125 9 -38 23 -97 31 -130 9 -33
22 -87 31 -120 8 -33 22 -86 30 -118 21 -73 21 -111 0 -131 -9 -9 -24 -30 -34
-47 -31 -52 -47 -34 -61 71 -7 52 -19 129 -27 170 -7 41 -20 116 -29 165 -35
208 -48 284 -62 353 -8 40 -14 86 -14 103 0 17 -8 44 -17 60 -16 26 -23 29
-68 29 -70 0 -99 -29 -92 -92 16 -149 29 -262 38 -326 6 -39 14 -116 19 -170
13 -142 29 -287 41 -367 6 -38 13 -110 15 -160 l5 -90 -58 -60 c-32 -33 -83
-88 -112 -123 -30 -34 -57 -62 -61 -62 -6 0 -42 39 -198 221 l-34 39 17 153
c10 83 21 197 26 252 5 55 13 122 19 148 5 26 10 71 10 98 0 28 6 96 14 152 8
56 19 143 25 192 6 50 13 100 17 112 10 37 -44 83 -97 83 -48 0 -79 -22 -79
-55 0 -13 -7 -56 -15 -96 -9 -41 -22 -108 -30 -149 -7 -41 -21 -111 -29 -155
-8 -44 -23 -123 -32 -175 -9 -52 -21 -115 -26 -140 -6 -25 -14 -80 -18 -123
-4 -42 -10 -80 -13 -83 -10 -10 -35 10 -73 60 -35 46 -36 51 -25 80 7 17 16
47 21 66 16 71 33 136 46 175 8 23 14 48 14 57 0 8 6 38 14 64 8 27 21 76 29
109 9 33 21 80 28 105 6 25 15 61 19 80 4 19 15 63 24 98 10 34 14 71 11 82
-7 21 -72 60 -101 60 -9 0 -28 6 -42 14 -15 7 -54 26 -87 41 -53 25 -62 26
-83 14 -19 -11 -255 -378 -289 -449 -4 -8 -19 -33 -33 -55 -14 -22 -30 -49
-37 -60 -121 -201 -116 -195 -153 -201 -19 -3 -48 -10 -64 -15 -15 -5 -32 -6
-37 -3 -17 10 -9 41 16 64 15 14 41 47 60 75 19 29 41 57 49 64 9 8 16 18 16
23 0 5 21 38 48 73 26 35 83 115 126 177 44 62 102 144 130 183 28 38 56 77
61 86 6 9 19 28 29 43 24 34 13 62 -38 101 -50 38 -74 29 -143 -57 -32 -39
-74 -90 -93 -113 -19 -24 -45 -56 -57 -71 -23 -31 -194 -246 -221 -279 -9 -11
-77 -95 -151 -187 -73 -92 -141 -170 -150 -172 -9 -2 -90 -8 -180 -11 l-164
-7 8 73 c4 41 11 121 14 179 l6 104 70 54 c39 29 89 70 113 89 56 47 108 88
222 178 52 41 120 95 150 120 30 25 91 73 134 107 44 34 87 69 96 78 8 8 37
31 63 49 45 33 52 45 49 82 -2 27 -64 89 -89 89 -13 0 -50 -19 -82 -42 -33
-24 -81 -58 -108 -76 -26 -18 -101 -70 -166 -115 -65 -45 -129 -89 -142 -97
-36 -22 -156 -108 -237 -168 -46 -35 -74 -50 -80 -44 -6 6 -7 33 -2 73 l9 63
80 49 c44 26 89 53 100 58 11 5 34 18 50 29 17 11 39 24 50 30 23 12 44 25
100 61 22 14 47 28 55 32 8 4 24 13 35 19 42 28 102 63 135 81 19 11 54 32 78
48 24 16 46 29 49 29 15 0 43 35 43 54 0 12 -13 48 -29 81 -45 94 -61 134 -61
154 0 16 -28 49 -57 65 -6 3 -29 0 -50 -7 -21 -8 -74 -22 -118 -32 -44 -9
-100 -23 -125 -30 -25 -7 -79 -20 -120 -29 -41 -9 -102 -24 -135 -32 -33 -9
-87 -22 -120 -30 -33 -9 -83 -22 -111 -30 -28 -8 -61 -14 -73 -14 -21 0 -121
67 -121 82 0 15 36 26 105 33 39 3 102 12 140 20 39 8 115 21 170 30 55 9 134
22 175 30 145 26 256 45 304 51 67 9 90 33 83 91 -7 65 -28 83 -96 83 -31 0
-76 -5 -101 -11 -24 -5 -92 -14 -150 -19 -58 -4 -148 -13 -200 -19 -148 -18
-351 -40 -395 -45 -22 -2 -86 -9 -141 -16 l-101 -13 -132 114 c-72 63 -131
119 -131 126 0 6 8 18 18 25 35 25 115 93 176 151 55 52 64 57 96 53 19 -3 80
-10 135 -15 55 -6 132 -15 170 -20 91 -13 266 -33 330 -37 50 -4 239 -26 387
-45 98 -13 123 0 133 67 12 81 0 91 -135 114 -36 6 -101 18 -145 26 -44 8
-114 21 -155 29 -41 8 -111 21 -155 29 -154 29 -250 45 -303 51 -101 11 -106
26 -27 80 l55 38 62 -17 c80 -23 174 -48 348 -91 33 -8 87 -22 120 -30 33 -8
88 -22 123 -31 34 -8 82 -22 107 -30 25 -8 63 -14 85 -14 34 0 43 5 58 29 9
16 17 36 17 45 0 9 20 60 45 113 25 53 45 104 45 114 0 16 -39 44 -163 117
-12 7 -34 21 -49 30 -94 59 -476 291 -511 310 -23 13 -45 26 -48 30 -4 4 -9
37 -13 75 -6 56 -4 67 9 67 8 0 77 -46 153 -102 134 -99 204 -149 412 -295 52
-37 122 -86 154 -110 82 -59 101 -57 164 21 17 22 15 53 -6 74 -9 9 -49 42
-87 72 -39 30 -72 57 -75 60 -3 3 -36 30 -75 60 -38 30 -79 63 -90 72 -20 17
-39 32 -192 153 -48 38 -90 72 -93 75 -3 3 -36 30 -75 60 -38 30 -72 57 -75
60 -3 4 -30 25 -61 48 l-56 42 -16 177 c-10 97 -14 180 -9 185 4 4 85 -1 181
-10 162 -16 174 -19 193 -42 11 -14 35 -43 53 -65 18 -22 72 -89 120 -150 47
-60 96 -121 108 -135 12 -14 44 -54 71 -90 28 -36 55 -69 61 -75 7 -5 34 -39
61 -75 27 -36 58 -76 70 -90 12 -14 51 -61 86 -105 53 -66 70 -81 96 -83 18
-2 32 1 32 7 0 5 9 13 20 16 30 9 53 50 46 79 -3 13 -32 60 -63 103 -32 44
-62 86 -68 95 -22 35 -130 191 -254 368 -25 36 -62 90 -83 120 -20 31 -46 64
-57 75 -26 22 -28 55 -3 55 51 -2 125 -28 143 -50 10 -14 19 -28 19 -32 0 -4
14 -27 30 -51 17 -25 30 -48 30 -51 0 -4 12 -25 27 -49 40 -61 51 -80 62 -102
5 -11 21 -37 35 -58 14 -21 26 -39 26 -41 0 -6 199 -337 211 -352 17 -20 37
-17 104 15 86 42 131 61 145 61 7 0 28 9 46 21 39 24 43 47 20 120 -7 24 -21
80 -31 124 -10 44 -23 100 -30 125 -7 25 -20 81 -30 125 -10 44 -22 91 -26
105 -5 14 -13 45 -19 70 -25 116 -40 175 -50 201 -10 24 -9 33 8 61 11 18 35
46 52 63 38 36 50 25 50 -50 0 -27 6 -83 14 -125 8 -41 22 -117 30 -167 39
-231 48 -283 61 -353 8 -41 21 -113 29 -159 8 -46 20 -89 26 -95 6 -6 34 -9
63 -8 78 3 89 22 82 131 -4 47 -11 109 -16 136 -5 28 -13 97 -18 155 -11 122
-26 258 -47 420 -8 63 -14 131 -14 150 0 19 -7 71 -15 114 l-15 80 44 45 c76
79 116 125 148 169 38 52 65 54 95 9z"/>
<path d="M6475 8225 c-16 -7 -46 -30 -65 -51 -31 -34 -35 -45 -35 -94 0 -61
14 -87 66 -126 24 -17 46 -24 80 -24 67 0 94 13 129 61 60 84 30 184 -69 232
-40 20 -65 20 -106 2z m116 -84 c50 -50 33 -118 -38 -147 -26 -11 -38 -12 -56
-3 -46 24 -57 41 -57 90 0 40 4 50 28 68 40 30 87 27 123 -8z"/>
<path d="M2100 8015 c-105 -78 -92 -207 27 -269 47 -24 84 -20 135 14 57 38
82 87 76 145 -13 113 -149 176 -238 110z m153 -66 c10 -13 17 -38 17 -63 0
-87 -93 -123 -151 -58 -63 70 -13 159 81 147 19 -2 43 -14 53 -26z"/>
<path d="M6822 7978 c-65 -22 -110 -111 -92 -180 14 -48 71 -104 116 -113 87
-16 103 36 19 63 -87 29 -105 112 -35 162 15 11 35 20 44 20 31 0 67 -24 82
-56 18 -38 36 -47 59 -30 15 11 16 18 6 48 -23 69 -122 112 -199 86z"/>
<path d="M1832 7808 c-21 -21 -14 -34 48 -94 68 -66 67 -85 -2 -64 -24 7 -71
18 -106 25 -53 10 -66 10 -78 -2 -17 -18 -12 -27 46 -89 25 -27 60 -66 79 -89
38 -46 67 -61 87 -44 22 18 18 26 -48 89 -54 51 -60 60 -44 66 11 4 58 -2 106
-14 102 -26 114 -26 129 -8 9 11 -3 31 -61 98 -40 46 -83 96 -94 111 -24 29
-43 34 -62 15z"/>
<path d="M7127 7767 c-8 -13 -47 -57 -86 -98 -54 -56 -70 -80 -68 -99 3 -33
31 -37 59 -8 86 89 163 184 163 202 0 32 -47 34 -68 3z"/>
<path d="M7350 7577 c-14 -7 -52 -23 -85 -35 -33 -13 -67 -27 -75 -31 -9 -5
-30 -12 -48 -16 -38 -8 -58 -42 -37 -64 11 -11 19 -11 49 0 34 12 37 12 66
-16 29 -28 30 -33 24 -81 -5 -40 -3 -52 9 -57 19 -7 57 19 57 40 0 17 15 54
67 162 26 54 33 78 26 89 -13 22 -24 24 -53 9z m-40 -113 c0 -29 -24 -42 -45
-24 -22 18 -18 39 8 49 29 11 37 6 37 -25z"/>
<path d="M1542 7523 c-10 -17 4 -63 18 -63 8 0 43 -31 121 -107 45 -44 61 -54
78 -48 35 11 24 41 -36 97 -31 29 -76 72 -100 96 -47 45 -67 52 -81 25z"/>
<path d="M7535 7376 c-17 -13 -17 -15 9 -48 l27 -36 -63 -49 c-35 -27 -76 -58
-91 -68 -21 -13 -27 -25 -25 -44 4 -37 36 -37 78 0 19 17 55 48 79 70 25 21
50 39 57 39 6 0 19 -12 28 -26 12 -17 25 -24 39 -22 34 5 34 43 -1 75 -16 16
-42 46 -58 68 -43 59 -49 63 -79 41z"/>
<path d="M1364 7315 c-30 -31 -54 -63 -54 -72 0 -8 12 -25 27 -37 16 -11 63
-52 107 -89 82 -71 109 -79 114 -36 2 20 -5 31 -37 52 -45 30 -49 38 -24 58 9
8 22 29 30 47 11 27 11 37 -1 66 -8 18 -24 41 -37 50 -41 28 -67 20 -125 -39z
m116 -41 c0 -24 -31 -64 -49 -64 -22 0 -41 19 -41 41 0 28 48 61 71 48 10 -5
19 -16 19 -25z"/>
<path d="M1190 7095 c-12 -14 -5 -55 9 -55 9 0 129 -84 177 -124 18 -14 37
-26 43 -26 10 0 31 31 31 47 0 5 -32 31 -71 58 -39 28 -89 65 -111 83 -44 35
-60 39 -78 17z"/>
<path d="M7730 7089 c-14 -11 -47 -36 -75 -54 -27 -19 -66 -47 -85 -64 -30
-25 -33 -32 -24 -48 14 -21 50 -20 73 3 21 19 129 97 159 113 17 9 22 20 20
39 -4 35 -36 40 -68 11z"/>
<path d="M7767 6882 c-61 -41 -72 -62 -72 -133 0 -58 3 -71 25 -94 30 -32 91
-65 120 -65 24 0 76 25 104 49 24 21 56 85 56 111 0 32 -36 95 -70 124 -39 33
-119 36 -163 8z m116 -54 c33 -17 46 -39 47 -79 1 -103 -157 -124 -176 -23
-15 82 58 140 129 102z"/>
<path d="M1014 6825 c-11 -27 3 -41 102 -100 55 -32 101 -62 102 -67 2 -4 16
-8 30 -8 22 0 33 10 55 48 15 26 33 54 39 63 14 20 3 69 -16 69 -15 0 -46 -32
-46 -47 0 -6 -9 -22 -21 -36 l-20 -26 -62 41 c-34 22 -74 49 -89 59 -33 23
-67 25 -74 4z"/>
<path d="M915 6649 c-18 -29 6 -55 92 -97 48 -24 102 -52 119 -63 31 -19 32
-19 55 0 30 24 20 38 -58 76 -32 16 -83 43 -114 62 -59 34 -83 40 -94 22z"/>
<path d="M8019 6512 c-42 -20 -97 -46 -123 -56 -41 -17 -47 -23 -44 -45 4 -36
27 -37 85 -3 101 60 115 51 63 -38 -16 -28 -30 -53 -30 -56 0 -3 -9 -18 -21
-33 -14 -19 -19 -36 -14 -50 8 -26 18 -26 69 -2 47 22 116 52 163 70 42 17 56
35 48 61 -9 28 -26 25 -101 -16 -47 -26 -69 -33 -77 -25 -7 7 -6 16 6 29 9 10
17 22 17 25 0 4 19 37 41 74 31 50 39 71 32 83 -16 24 -33 21 -114 -18z"/>
<path d="M805 6417 c-39 -82 -44 -115 -17 -124 35 -12 109 -45 168 -76 70 -35
97 -32 92 10 -2 22 -10 30 -40 38 -58 16 -64 28 -39 69 14 22 20 43 16 56 -13
40 -58 14 -70 -40 -6 -25 -11 -30 -36 -30 -41 0 -45 21 -14 78 31 57 30 86 -2
90 -19 3 -28 -8 -58 -71z"/>
<path d="M8110 3725 c0 -29 19 -40 82 -49 47 -7 75 -27 63 -46 -3 -5 -14 -10
-23 -10 -36 -1 -177 -57 -180 -72 -4 -21 25 -48 52 -48 23 0 119 -31 175 -57
41 -19 67 -7 63 28 -3 29 0 27 -58 38 -64 12 -106 29 -100 39 3 5 45 21 93 36
48 16 95 32 103 36 35 17 17 70 -24 70 -12 0 -59 14 -106 30 -107 38 -140 39
-140 5z"/>
<path d="M591 3716 c-20 -23 -9 -51 21 -54 35 -4 59 -33 65 -80 5 -34 2 -42
-16 -51 -25 -14 -29 -59 -6 -67 9 -4 32 9 58 32 43 39 52 47 140 118 80 66 64
82 -99 95 -65 5 -126 12 -135 16 -9 3 -21 -1 -28 -9z m199 -77 c0 -15 -31 -38
-51 -39 -18 0 -33 26 -23 41 8 13 74 11 74 -2z"/>
<path d="M914 3467 c-3 -8 0 -27 6 -42 14 -37 7 -43 -98 -80 -85 -30 -118 -55
-109 -79 10 -25 48 -19 131 19 98 44 122 45 131 4 6 -25 11 -30 33 -27 36 4
38 27 8 91 -13 29 -28 66 -32 82 -4 17 -12 33 -18 37 -18 12 -46 9 -52 -5z"/>
<path d="M8003 3413 c-7 -2 -13 -16 -13 -29 0 -17 8 -28 28 -35 15 -6 35 -15
44 -20 10 -5 23 -9 28 -9 11 0 91 -33 122 -50 10 -6 29 -10 43 -10 21 0 25 5
25 29 0 27 -5 30 -102 67 -57 20 -112 43 -123 51 -20 14 -31 15 -52 6z"/>
<path d="M7953 3282 c-6 -4 -21 -31 -32 -60 -12 -29 -28 -63 -37 -77 -22 -33
-15 -69 14 -73 18 -3 26 4 37 32 l15 36 96 -50 c97 -50 127 -59 139 -39 9 14
-3 59 -16 59 -6 0 -25 6 -42 14 -18 8 -58 24 -89 37 -40 16 -58 28 -58 40 0
10 5 21 10 24 16 10 12 52 -6 59 -19 7 -16 7 -31 -2z"/>
<path d="M1094 3054 c-4 -14 -2 -30 5 -37 27 -27 11 -46 -71 -86 -110 -52
-122 -62 -114 -89 10 -30 44 -28 86 3 19 14 38 25 43 25 5 0 30 14 55 31 43
29 47 30 57 14 25 -42 42 -58 58 -52 26 10 20 40 -20 114 -58 108 -86 130 -99
77z"/>
<path d="M7797 2953 c-48 -47 -52 -102 -10 -145 42 -44 82 -39 132 18 35 40
42 44 60 34 12 -6 21 -16 21 -23 0 -24 -30 -54 -60 -60 -24 -5 -30 -12 -30
-32 0 -26 10 -30 59 -26 40 4 91 67 91 113 0 33 -60 98 -91 98 -11 0 -40 -21
-65 -46 -50 -50 -77 -54 -82 -12 -3 28 27 58 60 58 24 0 31 16 16 40 -20 32
-59 25 -101 -17z"/>
<path d="M1203 2760 c-28 -22 -57 -40 -62 -40 -6 0 -11 -4 -11 -8 0 -4 -20
-18 -45 -30 -39 -19 -45 -26 -45 -52 0 -38 28 -40 74 -5 18 14 40 25 48 25 16
0 58 -61 58 -83 0 -7 -20 -23 -45 -36 -49 -26 -57 -53 -24 -74 13 -8 26 -4 55
20 22 17 74 52 116 77 43 26 80 51 83 56 9 14 -13 50 -30 50 -8 0 -30 -13 -48
-30 -19 -16 -39 -30 -45 -30 -16 0 -64 69 -60 87 3 14 33 38 76 59 17 9 15 41
-4 48 -27 11 -38 7 -91 -34z"/>
<path d="M7652 2728 c-7 -7 -12 -17 -12 -22 0 -6 41 -37 90 -68 80 -52 90 -61
90 -88 0 -34 -29 -55 -66 -46 -13 4 -53 29 -90 57 -51 39 -72 49 -90 45 -50
-13 -29 -43 82 -114 98 -64 135 -68 189 -21 31 27 35 37 35 78 0 54 -14 70
-127 149 -66 44 -82 49 -101 30z"/>
<path d="M1390 2449 c-41 -34 -90 -71 -107 -81 -23 -14 -33 -28 -33 -44 0 -13
4 -24 8 -24 5 0 28 -27 52 -59 46 -65 65 -78 86 -60 22 18 16 37 -27 84 -38
41 -41 48 -31 70 14 29 48 33 56 7 4 -11 17 -29 31 -42 20 -19 27 -21 40 -10
21 18 19 33 -10 60 -31 30 -33 66 -3 76 22 7 35 -4 81 -70 10 -14 26 -26 37
-26 21 0 36 33 24 52 -18 30 -109 128 -119 128 -6 0 -44 -28 -85 -61z"/>
<path d="M7415 2396 c-15 -10 -17 -17 -8 -27 12 -16 63 -107 105 -192 32 -63
51 -78 75 -55 13 14 13 19 -2 48 -15 28 -15 34 -1 54 32 50 46 57 91 50 27 -4
45 -2 49 5 12 18 -4 50 -27 56 -12 3 -38 10 -57 14 -32 8 -170 49 -195 58 -6
2 -19 -3 -30 -11z m136 -76 c23 -13 25 -33 3 -51 -14 -11 -19 -9 -35 11 -33
44 -16 65 32 40z"/>
<path d="M1679 2091 c-76 -77 -79 -83 -79 -127 0 -40 5 -51 36 -80 28 -27 44
-34 75 -34 35 0 47 8 125 83 79 76 86 85 75 105 -6 12 -17 22 -23 22 -6 0 -45
-34 -86 -75 -78 -79 -112 -93 -132 -56 -20 38 -10 59 60 127 49 47 70 75 68
89 -6 43 -39 28 -119 -54z"/>
<path d="M7102 2059 c-54 -52 -72 -76 -70 -92 5 -34 38 -34 65 -1 l24 29 83
-89 c87 -93 116 -106 116 -50 0 19 -17 42 -66 87 -86 80 -91 89 -59 121 29 29
32 51 9 60 -25 9 -25 9 -102 -65z"/>
<path d="M1958 1888 c-23 -28 -64 -76 -90 -106 -56 -64 -62 -92 -20 -92 23 0
36 10 67 55 58 86 67 77 59 -60 l-7 -115 32 0 c17 0 31 4 31 9 0 5 6 16 13 23
7 7 23 27 35 43 13 17 44 51 69 78 37 38 44 52 39 72 -12 49 -42 30 -114 -72
-39 -56 -45 -43 -40 80 3 61 3 118 1 125 -9 24 -32 12 -75 -40z"/>
<path d="M6872 1852 c-18 -6 -15 -34 18 -132 17 -50 30 -97 30 -106 0 -28 30
-74 49 -74 25 0 33 24 20 57 -9 24 -6 31 25 60 34 33 69 42 81 23 10 -16 55
-12 61 5 10 24 -10 39 -121 95 -58 29 -105 56 -105 60 0 9 -41 18 -58 12z
m120 -109 c23 -21 23 -30 -4 -44 -18 -10 -24 -8 -35 7 -32 43 -1 73 39 37z"/>
<path d="M2251 1673 c-14 -21 -49 -70 -78 -109 -62 -83 -68 -114 -24 -114 23
0 34 8 52 38 13 20 47 70 77 109 57 77 63 106 22 111 -19 2 -30 -6 -49 -35z"/>
<path d="M2384 1593 c-3 -16 -10 -50 -15 -78 -6 -27 -15 -68 -20 -90 -6 -22
-13 -57 -16 -77 -5 -36 -3 -38 21 -38 15 0 37 10 49 23 12 13 62 54 110 91 90
70 105 98 59 104 -17 3 -41 -11 -82 -47 -52 -46 -80 -61 -80 -45 0 17 24 100
31 109 5 5 9 24 9 42 0 30 -3 33 -30 33 -24 0 -31 -5 -36 -27z"/>
<path d="M6513 1589 c-45 -13 -73 -53 -73 -105 0 -36 5 -46 29 -63 34 -24 68
-26 95 -6 11 8 32 15 48 15 23 0 28 -4 28 -25 0 -31 -29 -47 -77 -43 -29 2
-38 -1 -41 -15 -6 -30 17 -47 63 -47 50 0 95 31 115 80 10 25 10 34 -7 62 -25
43 -63 57 -106 39 -18 -7 -44 -16 -59 -18 -25 -5 -28 -2 -28 21 0 35 40 62 70
46 29 -16 50 -6 50 24 0 18 -8 27 -31 35 -36 12 -33 12 -76 0z"/>
<path d="M2678 1443 c-8 -10 -28 -45 -45 -78 -17 -33 -42 -82 -57 -109 -31
-58 -31 -58 63 -111 72 -40 104 -42 109 -7 3 19 -5 26 -51 47 -62 27 -71 37
-62 64 9 29 34 33 62 11 28 -22 50 -25 72 -11 13 8 13 12 0 27 -8 9 -29 23
-46 31 -25 10 -33 20 -33 38 0 13 5 27 11 30 15 10 52 -2 79 -25 27 -24 63
-26 80 -5 9 11 10 18 1 29 -10 12 -150 86 -163 86 -3 0 -12 -8 -20 -17z"/>
<path d="M6210 1420 c-10 -6 -11 -25 -5 -87 4 -43 10 -112 14 -153 l6 -75 30
0 c28 0 30 2 30 38 0 35 4 41 41 63 l41 24 26 -20 c31 -25 63 -26 72 -3 7 19
-2 28 -141 144 -96 79 -97 80 -114 69z m92 -117 c26 -23 23 -50 -7 -55 -30 -6
-35 -2 -35 32 0 42 13 50 42 23z"/>
<path d="M2951 1314 c-11 -8 -21 -20 -21 -26 0 -10 -15 -47 -51 -124 -10 -23
-19 -46 -19 -53 0 -6 -4 -11 -10 -11 -5 0 -10 -13 -10 -30 0 -27 3 -30 30 -30
17 0 30 5 30 13 0 6 9 32 20 56 17 37 22 41 35 31 10 -8 15 -31 15 -67 0 -59
13 -93 35 -93 23 0 33 31 28 85 -4 49 -4 50 29 65 73 33 75 104 3 150 -68 44
-90 51 -114 34z m94 -88 c20 -31 10 -56 -24 -56 -40 1 -65 24 -57 54 9 35 59
37 81 2z"/>
<path d="M5987 1313 c-3 -5 -10 -34 -17 -65 -12 -60 -24 -70 -52 -40 -49 53
-98 62 -98 17 0 -18 13 -31 56 -55 30 -18 58 -38 60 -45 3 -7 -2 -41 -11 -75
-14 -56 -15 -65 -1 -78 25 -25 44 -7 58 57 6 34 17 61 23 61 5 0 25 -14 44
-30 18 -17 41 -30 50 -30 26 0 44 17 38 34 -6 16 -79 66 -96 66 -26 0 -32 41
-15 100 9 33 14 66 11 75 -7 15 -42 21 -50 8z"/>
<path d="M3255 1191 c-28 -12 -52 -41 -60 -71 -8 -32 21 -71 75 -101 44 -25
47 -31 24 -53 -25 -25 -51 -19 -74 19 -23 38 -40 44 -60 20 -30 -37 44 -115
110 -115 39 0 90 49 90 87 0 38 -25 72 -66 89 -25 11 -34 20 -34 38 0 47 74
39 86 -9 5 -21 12 -25 33 -23 38 4 38 37 -1 81 -35 38 -85 54 -123 38z"/>
<path d="M5621 1176 c-36 -12 -67 -28 -69 -35 -5 -14 12 -76 34 -128 8 -17 14
-38 14 -46 0 -19 37 -107 45 -107 18 0 162 54 173 65 11 10 11 17 3 34 -14 25
-19 26 -60 5 -18 -9 -47 -17 -64 -18 -29 -1 -32 2 -32 29 0 25 5 30 31 35 42
9 54 18 54 40 0 30 -18 34 -67 15 -38 -15 -47 -15 -54 -4 -17 26 -5 53 26 62
67 20 95 37 95 57 0 27 -45 26 -129 -4z"/>
<path d="M3518 1113 c-8 -10 -25 -63 -38 -118 -12 -55 -27 -104 -31 -110 -15
-16 -10 -44 10 -55 34 -18 48 -2 66 78 9 42 24 98 32 124 24 76 0 126 -39 81z"/>
<path d="M5415 1121 c-6 -6 -38 -14 -72 -20 -76 -12 -103 -26 -103 -51 0 -20
13 -25 62 -21 31 2 42 -14 53 -79 4 -25 13 -67 20 -95 10 -43 16 -50 39 -53
46 -6 44 28 -8 185 -17 48 -8 67 37 77 29 7 36 33 15 54 -14 14 -31 15 -43 3z"/>
<path d="M3654 1086 c-11 -27 1 -51 26 -54 34 -5 52 -22 44 -41 -11 -28 -36
-145 -37 -181 -2 -31 1 -35 25 -38 29 -3 27 -7 48 98 5 25 13 65 17 90 8 44 9
45 44 42 23 -2 41 3 49 13 21 25 -14 55 -64 55 -23 1 -59 7 -81 15 -51 19 -64
19 -71 1z"/>
<path d="M3938 1025 c-9 -21 -7 -31 18 -67 16 -24 35 -49 42 -57 10 -10 12
-29 7 -69 -4 -30 -9 -61 -11 -67 -3 -7 2 -20 12 -29 14 -15 19 -15 38 -3 17
12 22 27 26 80 5 68 7 71 76 126 32 25 45 56 32 69 -22 22 -47 12 -84 -33 -20
-25 -39 -45 -43 -45 -3 0 -23 27 -43 60 -20 33 -42 60 -48 60 -6 0 -16 -11
-22 -25z"/>
<path d="M4905 1028 c-22 -6 -51 -12 -64 -14 -21 -4 -22 -9 -17 -47 3 -23 10
-85 14 -137 9 -105 14 -120 43 -120 24 0 31 17 33 83 l1 52 40 3 c48 4 59 13
50 42 -6 19 -11 21 -59 15 -49 -6 -54 -5 -59 15 -11 41 1 50 63 50 65 0 92 16
83 50 -4 16 -13 20 -47 19 -22 -1 -59 -6 -81 -11z"/>
<path d="M4485 982 c-94 -65 -99 -173 -11 -250 32 -28 44 -32 91 -32 49 0 59
4 94 36 86 77 77 189 -21 250 -51 32 -102 31 -153 -4z m148 -73 c32 -35 34
-62 7 -106 -35 -57 -124 -54 -155 6 -20 40 -19 57 6 93 40 56 94 59 142 7z"/>
</g>
</svg>
